<svg width="28" height="39" viewBox="0 0 28 39" fill="none" xmlns="http://www.w3.org/2000/svg">
<path d="M2.02273 31V7.72727H11.2045C12.9621 7.72727 14.4621 8.04167 15.7045 8.67045C16.9545 9.29167 17.9053 10.1742 18.5568 11.3182C19.2159 12.4545 19.5455 13.7917 19.5455 15.3295C19.5455 16.875 19.2121 18.2045 18.5455 19.3182C17.8788 20.4242 16.9129 21.2727 15.6477 21.8636C14.3902 22.4545 12.8674 22.75 11.0795 22.75H4.93182V18.7955H10.2841C11.2235 18.7955 12.0038 18.6667 12.625 18.4091C13.2462 18.1515 13.7083 17.7652 14.0114 17.25C14.322 16.7348 14.4773 16.0947 14.4773 15.3295C14.4773 14.5568 14.322 13.9053 14.0114 13.375C13.7083 12.8447 13.2424 12.4432 12.6136 12.1705C11.9924 11.8902 11.2083 11.75 10.2614 11.75H6.94318V31H2.02273ZM14.5909 20.4091L20.375 31H14.9432L9.28409 20.4091H14.5909Z" fill="#00E0FF"/>
<circle cx="24.5" cy="22.5" r="3.5" fill="#D9D9D9"/>
</svg>
